<svg xmlns="http://www.w3.org/2000/svg" xml:space="preserve" style="fill-rule:evenodd;clip-rule:evenodd;stroke-linejoin:round;stroke-miterlimit:2" viewBox="0 0 415 512"><path d="M373.106 8.17 264.17 228.766l108.936 220.596h32.681V8.17h-32.681Z" style="fill:#ffc1a6;fill-rule:nonzero" transform="translate(-48.763) scale(1.11905)"/><path d="M373.106 416.681v32.681H51.745V8.17h321.361v32.681l-49.021 187.915 49.021 187.915Z" style="fill:#ffdbcc;fill-rule:nonzero" transform="translate(-48.763) scale(1.11905)"/><path d="M373.106 228.766v187.915h-32.68l-54.469-93.958 54.469-93.957h32.68Z" style="fill:#737373;fill-rule:nonzero" transform="translate(-48.763) scale(1.11905)"/><path d="M373.106 40.851v187.915h-32.68l-54.469-93.957 54.469-93.958h32.68Z" style="fill:#969696;fill-rule:nonzero" transform="translate(-48.763) scale(1.11905)"/><path d="M84.426 228.766h256v187.915h-256z" style="fill:#969696" transform="translate(-48.763) scale(1.11905)"/><path d="M84.426 40.851h256v187.915h-256z" style="fill:#b9b9b9" transform="translate(-48.763) scale(1.11905)"/><path d="M277.787 312.102v54.468h-32.681l-32.68-27.234 32.68-27.234h32.681Z" style="fill:#ffdbcc;fill-rule:nonzero" transform="translate(-48.763) scale(1.11905)"/><path d="M179.745 312.102h65.362v54.468h-65.362z" style="fill:#fff" transform="translate(-48.763) scale(1.11905)"/><path d="M277.787 123.643v54.468h-32.681l-32.68-27.234 32.68-27.234h32.681Z" style="fill:#ffdbcc;fill-rule:nonzero" transform="translate(-48.763) scale(1.11905)"/><path d="M179.745 123.643h65.362v54.468h-65.362z" style="fill:#fff" transform="translate(-48.763) scale(1.11905)"/><path d="M405.333 512H9.143A9.143 9.143 0 0 1 0 502.857V9.143A9.143 9.143 0 0 1 9.143 0h396.19a9.142 9.142 0 0 1 9.143 9.143v493.714a9.142 9.142 0 0 1-9.143 9.143Zm-9.142-493.715H18.285v475.43h377.906V18.285Z"/><path d="M368.762 475.43H45.714a9.143 9.143 0 0 1-9.142-9.143V45.714a9.143 9.143 0 0 1 9.142-9.142h323.048a9.142 9.142 0 0 1 9.142 9.142v420.573a9.142 9.142 0 0 1-9.142 9.143Zm-9.143-420.573H54.857v192.001h304.762V54.857Zm0 402.287v-192H54.857v192h304.762Z"/><path d="M253.277 279.421a8.17 8.17 0 0 0-8.17-8.17h-32.681a8.17 8.17 0 0 0 0 16.34h32.681a8.17 8.17 0 0 0 8.17-8.17ZM277.787 115.472h-98.043a8.17 8.17 0 0 0-8.17 8.17v54.468a8.17 8.17 0 0 0 8.17 8.17h98.043a8.17 8.17 0 0 0 8.17-8.17v-54.468a8.169 8.169 0 0 0-8.17-8.17Zm-8.17 54.468h-81.702v-38.128h81.702v38.128Z" style="fill-rule:nonzero" transform="translate(-48.763) scale(1.11905)"/><path d="M277.787 115.472h-98.043a8.17 8.17 0 0 0-8.17 8.17v54.468a8.17 8.17 0 0 0 8.17 8.17h98.043a8.17 8.17 0 0 0 8.17-8.17v-54.468a8.169 8.169 0 0 0-8.17-8.17Zm-8.17 54.468h-81.702v-38.128h81.702v38.128Z" style="fill-rule:nonzero" transform="translate(-48.762 210.896) scale(1.11905)"/><path d="M212.426 99.132h32.681a8.17 8.17 0 0 0 0-16.34h-32.681a8.17 8.17 0 0 0 0 16.34Z" style="fill-rule:nonzero" transform="translate(-48.763) scale(1.11905)"/></svg>
