<?xml version="1.0" standalone="no"?>
<!DOCTYPE svg PUBLIC "-//W3C//DTD SVG 20010904//EN"
 "http://www.w3.org/TR/2001/REC-SVG-20010904/DTD/svg10.dtd">
<svg version="1.0" xmlns="http://www.w3.org/2000/svg"
 width="1024.000000pt" height="1024.000000pt" viewBox="0 0 1024.000000 1024.000000"
 preserveAspectRatio="xMidYMid meet">
<metadata>
Created by potrace 1.14, written by Peter Selinger 2001-2017
</metadata>
<g transform="translate(0.000000,1024.000000) scale(0.100000,-0.100000)"
fill="#000000" stroke="none">
<path d="M1075 10226 c-37 -17 -80 -62 -94 -99 -8 -20 -11 -1514 -11 -5008 0
-4206 2 -4985 14 -5012 16 -39 61 -82 99 -96 20 -8 1228 -11 4033 -11 3378 0
4010 2 4037 14 39 16 82 61 96 99 15 40 15 9974 0 10014 -14 38 -57 83 -96 99
-48 21 -8033 20 -8078 0z m7408 -363 l397 -6 0 -4737 0 -4737 -397 -6 c-219
-4 -1916 -7 -3770 -7 l-3373 0 0 4750 0 4750 3373 0 c1854 0 3551 -3 3770 -7z"/>
<path d="M8354 9690 c0 -91 2 -128 3 -82 2 45 2 119 0 165 -1 45 -3 8 -3 -83z"/>
<path d="M5080 9510 c-2457 -4 -3270 -8 -3285 -17 -26 -14 -69 -62 -84 -90 -8
-16 -11 -1152 -11 -4283 0 -3648 2 -4265 14 -4288 16 -31 61 -74 93 -91 15 -8
916 -11 3315 -11 l3293 0 39 27 c22 16 49 46 60 68 l21 40 0 4255 0 4255 -21
40 c-26 49 -88 95 -134 98 -19 2 -1504 0 -3300 -3z m533 -2227 l407 -6 0 -419
0 -418 -905 0 -905 0 0 425 0 425 498 0 c274 0 682 -3 905 -7z m407 -4631 l0
-419 -397 -6 c-219 -4 -626 -7 -905 -7 l-508 0 0 425 0 425 905 0 905 0 0
-418z"/>
<path d="M8354 550 c0 -91 2 -128 3 -82 2 45 2 119 0 165 -1 45 -3 8 -3 -83z"/>
</g>
</svg>
